<svg xmlns="http://www.w3.org/2000/svg" viewBox="0 0 225 225"><title>left arrowAsset 1</title><g id="Layer_2" data-name="Layer 2"><g id="Layer_1-2" data-name="Layer 1"><path d="M0,119V104c.45-2.58,1-5.15,1.34-7.74A112.22,112.22,0,0,1,89,3c5.64-1.2,11.36-2,17-3h13c2.91.44,5.81.94,8.73,1.32,44.19,5.76,82.16,39.35,93,82.75,2.12,8.47,2.89,17.28,4.28,25.93v9c-.43,2.75-.93,5.49-1.27,8.26C218.16,173,181.6,212.71,136.5,221.9c-5.8,1.18-11.66,2.07-17.5,3.1H106c-2.92-.44-5.83-.93-8.76-1.3-43.91-5.6-82.22-39.38-93-82.31C2.37,134,1.38,126.47,0,119Zm10-7.24c.56,58.69,46.76,103.81,103.61,103.06,57.3-.75,101.09-46.37,101.18-101.32C214.85,52.69,166.58,9.26,111,10.18,52.25,11.15,10.55,58.73,10,111.76Z"/><path d="M177.48,132.79H112v34.56L40.65,112.51,111.74,57.8V92.21h65.74Z"/></g></g></svg>