<svg xmlns="http://www.w3.org/2000/svg" viewBox="0 0 146.92 147.2"><defs><style>.cls-1{fill:#fff;}</style></defs><title>lockAsset 1</title><g id="Layer_2" data-name="Layer 2"><g id="Layer_1-2" data-name="Layer 1"><path class="cls-1" d="M77.77,147.2H69.16a8.66,8.66,0,0,0-1.1-.24A68.93,68.93,0,0,1,36,136.84C13.73,123,1.66,102.89.12,76.69A68.75,68.75,0,0,1,8.64,39.08C20,18.33,37.41,5.64,60.67,1.16,63.47.62,66.33.38,69.16,0h8.61a8.81,8.81,0,0,0,1.11.24A69,69,0,0,1,108,8.65c20.68,11.45,33.35,28.84,37.81,52.14.54,2.8.78,5.66,1.16,8.5v8.62a11,11,0,0,0-.24,1.25,69.38,69.38,0,0,1-8.39,29c-11.43,20.73-28.78,33.42-52,37.9C83.46,146.58,80.6,146.82,77.77,147.2Zm-4.34-36.8H93.94c6.36,0,10.15-3.8,10.15-10.2q0-14.37,0-28.74c0-6.3-3.81-10.14-10.08-10.14q-20.58,0-41.15,0c-6.19,0-10,3.85-10,10.06q0,14.52,0,29c0,6.19,3.86,10,10.07,10ZM97.91,55.15c0-6.28-1.61-11.89-5.7-16.58C87.37,33,81,30.75,73.83,30.72,64.42,30.68,56.75,34,52,42.58a24.3,24.3,0,0,0-2.92,12.56h7.53a18.22,18.22,0,0,1,2.3-8.36,17,17,0,0,1,6.22-6.21A16.76,16.76,0,0,1,83.94,42a17,17,0,0,1,6.4,13.13Z"/><path class="cls-1" d="M69.77,90.83c0-.43,0-.87,0-1.3a4.93,4.93,0,0,0-1.64-4.47,6.6,6.6,0,0,1,.41-9.89A7.48,7.48,0,0,1,79.18,76,6.86,6.86,0,0,1,78,85.91a2.68,2.68,0,0,0-.83,1.76c-.1,2.14,0,4.3,0,6.45a3.71,3.71,0,1,1-7.4,0C69.75,93,69.77,91.93,69.77,90.83Z"/></g></g></svg>