<?xml version="1.0" encoding="utf-8"?>
<!-- Generator: Adobe Illustrator 24.0.1, SVG Export Plug-In . SVG Version: 6.00 Build 0)  -->
<svg version="1.1" id="Layer_1" xmlns="http://www.w3.org/2000/svg" xmlns:xlink="http://www.w3.org/1999/xlink" x="0px" y="0px"
	 viewBox="0 0 328.1 126.3" style="enable-background:new 0 0 328.1 126.3;" xml:space="preserve">
<style type="text/css">
	.st0{fill:none;}
	.st1{fill:#FACA30;}
</style>
<rect y="0" class="st0" width="328.1" height="126.3"/>
<title>loop_logo_rev [Recovered]</title>
<g>
	<path class="st1" d="M189.9,24.3c-9.2-5.3-22.2-4.6-31.9-0.7l10.4,16.8c3.5-0.7,8.6-1.1,11.8,0.8c7.1,4.2,9.5,13.5,5.2,20.6
		c-4.2,7-13,9.3-20.1,5.4c-4.6-2.7-7.4-7.5-7.5-12.8v-3.2l-0.1-2.5c-2.1-18.9-19-32.5-37.9-30.5s-32.5,19-30.4,37.9
		c1.1,10.9,7.5,20.6,16.9,26.1c9.2,5.3,22.3,4.6,32.1,0.6l-6.3-9.7c-1.5-2.4-3.1-4.7-4.6-7.1c-1.2,0.4-6.7,2.1-11.5-0.7
		c-7.1-4.3-9.4-13.5-5.1-20.6c4.2-6.9,13-9.2,20.1-5.4c4.6,2.7,7.4,7.5,7.5,12.8v2c0,0.1,0,0.1,0,0.1l0.1,2.4
		c0.9,11.3,7.3,21.5,17.1,27.2c16.5,9.5,37.6,3.8,47.1-12.7C212.1,54.7,206.4,33.7,189.9,24.3L189.9,24.3L189.9,24.3z"/>
	<path class="st1" d="M233,52.3c0-4.6,2.2-9,5.9-11.8c6.5-4.9,15.7-3.6,20.6,2.9c4.9,6.5,3.6,15.7-2.9,20.6l0,0
		c-3.2,2.4-8.4,2.4-12.2,1.9l-1.8,18.3c7.9,0.4,18.5-0.1,25.5-4.9c15.4-10.5,17.9-32.5,6.7-47.4c-11.2-15-32.4-18-47.3-6.8
		C219,31.5,214,41.5,214,52.2v35.6h19.2L233,52.3z"/>
	<path class="st1" d="M84.4,68.9c-1.9,0.4-3.7,0.4-5.6,0.1h-0.1c-2.5-0.4-4.8-1.4-6.8-2.9c-3.7-2.9-5.9-7.2-5.9-12V18.8H46.5v35.3
		c0,10.8,5.1,21,13.8,27.5c1.9,1.4,4,2.7,6.2,3.7c8.7,4.2,18.9,4.4,27.9,0.8L84.4,68.9z"/>
	<path class="st1" d="M55.6,100l2.1,5.7l2.2-5.7h2.4l-3.3,8.2h-2.4l-2.2-5.5l-2.2,5.5h-2.4l-3.3-8.2h2.3l2.2,5.6l2.2-5.6H55.6z"/>
	<path class="st1" d="M70,106.7h-4.6l-0.8,1.6h-2.4l4.3-8.2h2.4l4.3,8.2h-2.4L70,106.7z M66.2,105.1h3l-1.5-3L66.2,105.1z"/>
	<path class="st1" d="M76.7,103.2l4.5-3.2h2.9l-5.5,3.9l5.9,4.2h-3.2l-4.7-3.4v3.4h-2.2V100h2.2L76.7,103.2z"/>
	<path class="st1" d="M85.9,108.2V100h8.3v1.7h-6v1.4h5.7v1.7h-5.7v1.6h6.1v1.7L85.9,108.2L85.9,108.2z"/>
	<path class="st1" d="M105.7,106c0,0.3,0,0.6-0.1,0.9c-0.1,0.2-0.2,0.4-0.4,0.6c-0.1,0.1-0.4,0.3-0.5,0.4c-0.2,0.1-0.5,0.2-0.7,0.3
		c-0.3,0.1-0.5,0.1-0.8,0.1s-0.6,0-0.9,0h-5.9v-8.2h5.8c0.2,0,0.5,0,0.7,0s0.4,0.1,0.6,0.1c0.2,0.1,0.4,0.1,0.6,0.2s0.4,0.2,0.5,0.4
		s0.3,0.4,0.3,0.6c0.1,0.2,0.1,0.5,0.1,0.8c0,0.4-0.1,0.9-0.4,1.3c-0.4,0.4-0.8,0.6-1.2,0.6c0.4,0,0.7,0.1,1,0.2s0.5,0.2,0.7,0.4
		c0.1,0.1,0.3,0.4,0.4,0.6C105.7,105.4,105.7,105.7,105.7,106z M103,102.5c0-0.1,0-0.2-0.1-0.3c0-0.1-0.1-0.2-0.1-0.3
		c-0.1-0.1-0.2-0.1-0.4-0.1c-0.2-0.1-0.4-0.1-0.6-0.1h-3.2v1.5h3.2c0.2,0,0.4,0,0.6-0.1c0.1,0,0.2-0.1,0.4-0.1
		c0.1-0.1,0.1-0.1,0.1-0.2C103,102.7,103,102.5,103,102.5z M103.5,105.7c0-0.1,0-0.3-0.1-0.4s-0.1-0.2-0.3-0.3s-0.4-0.1-0.5-0.1
		c-0.2,0-0.4,0-0.8,0h-3.2v1.7h3.2c0.3,0,0.6,0,0.8,0c0.2,0,0.4-0.1,0.5-0.1c0.1-0.1,0.2-0.1,0.3-0.3
		C103.5,106.1,103.5,105.9,103.5,105.7z"/>
	<path class="st1" d="M118.3,104.1c0,0.6-0.1,1.3-0.4,1.9c-0.3,0.5-0.6,1-1.1,1.4s-1.1,0.6-1.7,0.8c-1.5,0.4-3.1,0.4-4.6,0
		c-0.6-0.1-1.2-0.4-1.8-0.8c-0.5-0.4-0.9-0.8-1.1-1.4c-0.5-1.2-0.5-2.5,0-3.7c0.3-0.5,0.6-1,1.1-1.4s1.1-0.6,1.8-0.8
		c1.5-0.4,3.1-0.4,4.6,0c0.6,0.1,1.2,0.4,1.7,0.8s0.9,0.8,1.1,1.4C118.2,102.8,118.3,103.5,118.3,104.1z M116.1,104.1
		c0-0.3-0.1-0.6-0.1-0.9c-0.1-0.3-0.3-0.6-0.5-0.8c-0.3-0.3-0.6-0.5-1-0.6c-0.5-0.1-1.1-0.2-1.6-0.2c-0.4,0-0.8,0-1.1,0.1
		c-0.3,0.1-0.6,0.1-0.9,0.3c-0.2,0.1-0.4,0.3-0.6,0.4c-0.1,0.1-0.3,0.4-0.4,0.5c-0.1,0.2-0.1,0.4-0.2,0.6c-0.1,0.4-0.1,0.8,0,1.2
		s0.3,0.8,0.6,1.1c0.2,0.1,0.4,0.3,0.6,0.4c0.3,0.1,0.6,0.2,0.9,0.3c0.4,0.1,0.8,0.1,1.1,0.1c0.6,0,1.1-0.1,1.6-0.2
		c0.4-0.1,0.7-0.3,1-0.6c0.2-0.2,0.4-0.5,0.5-0.8C116,104.8,116.1,104.5,116.1,104.1L116.1,104.1z"/>
	<path class="st1" d="M126.8,106.7h-4.6l-0.8,1.6H119l4.3-8.2h2.4l4.3,8.2h-2.4L126.8,106.7z M123,105.1h3l-1.4-3L123,105.1z"/>
	<path class="st1" d="M133.6,108.2h-2.2V100h5.5c0.5,0,1,0.1,1.5,0.2c0.4,0.1,0.7,0.3,1,0.5s0.4,0.5,0.6,0.8
		c0.1,0.4,0.2,0.7,0.2,1.1c0,0.3-0.1,0.6-0.1,0.9c-0.1,0.2-0.2,0.5-0.4,0.6c-0.1,0.2-0.4,0.4-0.6,0.4c-0.2,0.1-0.5,0.2-0.7,0.3
		l2.7,3.2h-2.6l-2.5-3h-2.4V108.2z M137.9,102.6c0-0.1,0-0.3-0.1-0.4s-0.1-0.2-0.2-0.3c-0.1-0.1-0.3-0.1-0.4-0.1
		c-0.2,0-0.4-0.1-0.6-0.1h-3v1.7h3c0.2,0,0.4,0,0.6-0.1c0.1,0,0.3-0.1,0.4-0.1c0.1-0.1,0.1-0.1,0.2-0.3
		C137.9,102.9,137.9,102.8,137.9,102.6z"/>
	<path class="st1" d="M152.6,104.1c0,0.5-0.1,0.9-0.1,1.4c-0.1,0.4-0.3,0.7-0.5,1.1c-0.2,0.3-0.4,0.6-0.7,0.8s-0.6,0.4-1,0.5
		s-0.8,0.2-1.1,0.3c-0.4,0.1-0.9,0.1-1.3,0.1h-5.2V100h5.2c0.4,0,0.9,0,1.3,0.1c0.4,0.1,0.8,0.1,1.1,0.3c0.4,0.1,0.6,0.3,1,0.5
		c0.3,0.2,0.6,0.5,0.7,0.8c0.2,0.4,0.4,0.7,0.5,1.1C152.6,103.2,152.6,103.7,152.6,104.1z M150.4,104.1c0-0.4-0.1-0.7-0.1-1
		c-0.1-0.3-0.3-0.5-0.5-0.7c-0.3-0.2-0.6-0.4-0.9-0.4c-0.4-0.1-0.9-0.1-1.3-0.1h-2.7v4.7h2.7c0.4,0,0.9-0.1,1.3-0.1
		c0.3-0.1,0.6-0.2,0.9-0.4s0.4-0.4,0.5-0.7C150.3,104.8,150.4,104.5,150.4,104.1z"/>
	<path class="st1" d="M167.3,108c-0.3,0.1-0.6,0.1-0.9,0.2c-0.3,0.1-0.6,0.1-1,0.1c-0.4,0.1-0.7,0.1-1.1,0.1c-0.8,0-1.6-0.1-2.3-0.3
		c-0.6-0.1-1.3-0.4-1.8-0.8s-0.9-0.8-1.1-1.4c-0.6-1.2-0.6-2.6,0-3.8c0.3-0.6,0.7-1,1.1-1.4c0.6-0.4,1.1-0.6,1.8-0.8
		c0.8-0.2,1.5-0.3,2.3-0.3c0.4,0,0.8,0,1.1,0.1c0.4,0,0.6,0.1,1,0.1c0.3,0.1,0.6,0.1,0.9,0.3c0.3,0.1,0.6,0.2,0.9,0.4v2
		c-0.2-0.1-0.4-0.2-0.7-0.4s-0.6-0.2-0.9-0.4c-0.4-0.1-0.6-0.1-1-0.2s-0.8-0.1-1.2-0.1c-0.6,0-1.1,0.1-1.7,0.2
		c-0.4,0.1-0.8,0.3-1.1,0.6c-0.3,0.2-0.4,0.5-0.6,0.8c-0.1,0.3-0.1,0.6-0.1,0.9c0,0.2,0,0.4,0.1,0.6s0.1,0.4,0.2,0.6
		c0.1,0.2,0.3,0.4,0.4,0.5c0.2,0.1,0.4,0.3,0.6,0.4c0.3,0.1,0.6,0.2,0.9,0.3c0.4,0.1,0.8,0.1,1.2,0.1s0.8,0,1.2-0.1s0.6-0.1,1-0.2
		c0.3-0.1,0.6-0.2,0.9-0.4c0.2-0.1,0.5-0.2,0.7-0.4v2C167.9,107.8,167.6,107.9,167.3,108z"/>
	<path class="st1" d="M176.9,106.7h-4.6l-0.8,1.6h-2.4l4.3-8.2h2.4l4.3,8.2h-2.4L176.9,106.7z M173.1,105.1h3l-1.5-3L173.1,105.1z"
		/>
	<path class="st1" d="M190.8,106c0,0.3-0.1,0.6-0.1,0.9c-0.1,0.2-0.2,0.4-0.4,0.6c-0.1,0.1-0.4,0.3-0.5,0.4
		c-0.2,0.1-0.5,0.2-0.7,0.3c-0.3,0.1-0.5,0.1-0.8,0.1s-0.6,0-0.9,0h-5.9v-8.2h5.8c0.2,0,0.5,0,0.7,0s0.4,0.1,0.7,0.1
		c0.2,0.1,0.4,0.1,0.6,0.2c0.2,0.1,0.4,0.2,0.5,0.4c0.1,0.1,0.3,0.4,0.4,0.6c0.1,0.2,0.1,0.5,0.1,0.8c0,0.4-0.1,0.9-0.4,1.3
		c-0.4,0.4-0.8,0.6-1.2,0.6c0.4,0,0.7,0.1,1,0.2s0.5,0.2,0.7,0.4c0.1,0.1,0.3,0.4,0.4,0.6C190.8,105.4,190.8,105.7,190.8,106z
		 M188,102.5c0-0.1,0-0.2-0.1-0.3c0-0.1-0.1-0.2-0.1-0.3c-0.1-0.1-0.2-0.1-0.4-0.1c-0.2-0.1-0.4-0.1-0.6-0.1h-3.2v1.5h3.2
		c0.2,0,0.4,0,0.6-0.1c0.1,0,0.2-0.1,0.4-0.1c0.1-0.1,0.1-0.1,0.1-0.2C188,102.7,188,102.5,188,102.5L188,102.5z M188.5,105.7
		c0-0.1,0-0.3-0.1-0.4s-0.1-0.2-0.3-0.3c-0.1-0.1-0.4-0.1-0.5-0.1c-0.2,0-0.4,0-0.8,0h-3.2v1.7h3.2c0.3,0,0.6,0,0.8,0
		s0.4-0.1,0.5-0.1c0.1-0.1,0.2-0.1,0.3-0.3C188.5,106.1,188.5,105.9,188.5,105.7z"/>
	<path class="st1" d="M192.8,108.2V100h2.2v6.4h5.9v1.8C200.9,108.2,192.8,108.2,192.8,108.2z"/>
	<path class="st1" d="M202.7,108.2V100h8.2v1.7h-6v1.4h5.7v1.7h-5.7v1.6h6.1v1.7L202.7,108.2L202.7,108.2z"/>
	<path class="st1" d="M225.4,102.3c-0.1-0.1-0.4-0.1-0.6-0.3c-0.3-0.1-0.6-0.2-0.9-0.3c-0.4-0.1-0.7-0.1-1.1-0.2s-0.8-0.1-1.1-0.1
		s-0.6,0-0.8,0s-0.4,0.1-0.6,0.1c-0.1,0-0.2,0.1-0.4,0.1c-0.1,0-0.1,0.1-0.2,0.1c-0.1,0-0.1,0.1-0.1,0.1c0,0.1,0,0.1,0,0.1
		c0,0.1,0.1,0.2,0.1,0.3c0.1,0.1,0.3,0.2,0.5,0.2c0.2,0.1,0.5,0.1,0.7,0.2l0.9,0.2l0.9,0.2c0.4,0.1,0.6,0.1,0.9,0.3
		c0.3,0.1,0.6,0.2,0.9,0.4s0.5,0.3,0.7,0.5c0.2,0.1,0.4,0.4,0.5,0.6c0.1,0.3,0.1,0.5,0.1,0.8c0,0.4-0.1,0.7-0.2,1
		c-0.1,0.3-0.3,0.5-0.6,0.7c-0.2,0.2-0.5,0.4-0.8,0.4c-0.3,0.1-0.6,0.2-0.9,0.3c-0.4,0.1-0.6,0.1-1,0.1s-0.6,0-1,0
		c-0.8,0-1.5-0.1-2.2-0.2c-0.6-0.1-1.2-0.3-1.8-0.5v-1.9c0.6,0.3,1.2,0.6,1.9,0.7s1.5,0.3,2.2,0.3c0.4,0,0.8,0,1.1-0.1
		c0.2,0,0.5-0.1,0.7-0.2c0.1-0.1,0.2-0.1,0.4-0.3c0.1-0.1,0.1-0.1,0.1-0.3c0-0.1-0.1-0.3-0.2-0.4c-0.1-0.1-0.3-0.2-0.5-0.3
		c-0.2-0.1-0.5-0.1-0.7-0.2l-0.9-0.2l-0.9-0.2c-0.3-0.1-0.6-0.1-0.9-0.3c-0.3-0.1-0.6-0.2-0.9-0.4s-0.5-0.3-0.7-0.4
		s-0.4-0.4-0.5-0.6c-0.1-0.3-0.2-0.5-0.2-0.8s0.1-0.6,0.2-0.9c0.1-0.3,0.3-0.5,0.5-0.6c0.2-0.2,0.4-0.4,0.7-0.4
		c0.3-0.1,0.6-0.2,0.9-0.3c0.3-0.1,0.6-0.1,0.9-0.1c0.4,0,0.6,0,0.9,0c0.4,0,0.6,0,1,0.1c0.4,0,0.6,0.1,1,0.1
		c0.4,0.1,0.6,0.1,0.9,0.2s0.6,0.1,0.9,0.2L225.4,102.3z"/>
	<path class="st1" d="M233.3,104.9v3.4H231v-3.4l-3.9-4.9h2.5l2.6,3.3l2.6-3.3h2.5L233.3,104.9z"/>
	<path class="st1" d="M246.3,102.3c-0.1-0.1-0.4-0.1-0.6-0.3c-0.3-0.1-0.6-0.2-0.9-0.3c-0.4-0.1-0.7-0.1-1.1-0.2s-0.8-0.1-1.1-0.1
		s-0.6,0-0.8,0s-0.4,0.1-0.6,0.1c-0.1,0-0.2,0.1-0.4,0.1c-0.1,0-0.1,0.1-0.2,0.1c-0.1,0-0.1,0.1-0.1,0.1c0,0.1,0,0.1,0,0.1
		c0,0.1,0.1,0.2,0.2,0.3c0.1,0.1,0.3,0.2,0.5,0.2c0.2,0.1,0.5,0.1,0.7,0.2l0.9,0.2l0.9,0.2c0.3,0.1,0.6,0.1,0.9,0.3
		c0.3,0.1,0.6,0.2,0.9,0.4c0.3,0.1,0.5,0.3,0.7,0.5c0.2,0.1,0.4,0.4,0.5,0.6s0.2,0.5,0.2,0.8c0,0.4-0.1,0.7-0.2,1
		c-0.1,0.3-0.3,0.5-0.6,0.7c-0.2,0.2-0.5,0.4-0.8,0.4c-0.3,0.1-0.6,0.2-0.9,0.3c-0.4,0.1-0.6,0.1-1,0.1s-0.6,0-1,0
		c-0.7,0-1.5-0.1-2.2-0.2c-0.6-0.1-1.2-0.3-1.8-0.5v-1.9c0.6,0.3,1.2,0.6,1.9,0.7s1.5,0.3,2.2,0.3c0.4,0,0.8,0,1.1-0.1
		c0.2,0,0.5-0.1,0.7-0.2c0.1-0.1,0.2-0.1,0.4-0.3c0.1-0.1,0.1-0.1,0.1-0.3c0-0.1-0.1-0.3-0.2-0.4c-0.1-0.1-0.3-0.2-0.5-0.3
		c-0.2-0.1-0.5-0.1-0.7-0.2l-0.9-0.2l-0.9-0.2c-0.4-0.1-0.6-0.1-0.9-0.3c-0.3-0.1-0.6-0.2-0.9-0.4c-0.3-0.1-0.5-0.3-0.7-0.4
		s-0.4-0.4-0.5-0.6c-0.1-0.3-0.2-0.5-0.2-0.8s0.1-0.6,0.2-0.9c0.1-0.3,0.3-0.5,0.5-0.6c0.2-0.2,0.4-0.4,0.7-0.4
		c0.3-0.1,0.6-0.2,0.9-0.3c0.3-0.1,0.6-0.1,0.9-0.1s0.6,0,0.9,0c0.4,0,0.6,0,1,0.1c0.4,0,0.6,0.1,1,0.1c0.4,0.1,0.6,0.1,0.9,0.2
		l0.9,0.2L246.3,102.3z"/>
	<path class="st1" d="M253.6,101.8v6.4h-2.2v-6.4H248V100h9.2v1.8H253.6z"/>
	<path class="st1" d="M258.5,108.2V100h8.2v1.7h-6v1.4h5.7v1.7h-5.7v1.6h6.1v1.7L258.5,108.2L258.5,108.2z"/>
	<path class="st1" d="M279.4,108.2v-5.7l-3,5.7h-2.2l-3-5.7v5.7H269V100h3l3.3,6.2l3.3-6.2h3v8.2H279.4z"/>
</g>
</svg>
